<?xml version="1.0" encoding="utf-8"?>
<!-- Generator: Adobe Illustrator 27.2.0, SVG Export Plug-In . SVG Version: 6.00 Build 0)  -->
<svg version="1.2" baseProfile="tiny" id="Layer_1" xmlns:xodm="http://www.corel.com/coreldraw/odm/2003"
	 xmlns="http://www.w3.org/2000/svg" xmlns:xlink="http://www.w3.org/1999/xlink" x="0px" y="0px" viewBox="0 0 508 508"
	 overflow="visible" xml:space="preserve">
<rect fill="#282828" stroke="#000000" stroke-miterlimit="10" width="508" height="508"/>
<g id="Layer_x0020_1">
	<path fill-rule="evenodd" fill="#00FFD5" d="M420,311H88c-5.2,0-11-4.5-11-10V167c0-4.9,7.8-9,14-9h82c5.3,0,2.3,10.5,3.1,15.9
		c0.6,4.4,4.9,9.1,9.9,9.1h137c5.1,0,9.3-4.6,9.9-9.1c0.7-5.5-2.2-15.9,3.1-15.9h83c8.8,0,14,5.2,14,14v126
		C433,305.8,427.9,311,420,311z M303,167l1-1c1.5-2.7,1.6-2.1,6-2.2c4.9-0.1,5.2-0.4,7,2.2c1.4,0.4,3-1.8,3,7c-4.7,4.1-2.8,2.8-16,3
		C302.2,173.3,298.1,170.4,303,167L303,167z M263,167l1-1c1.5-2.7,1.6-2.1,6-2.2c4.9-0.1,5.2-0.4,7,2.2c3.3,0.6,1.4-1.3,2,2
		c0.8,1.2,0.6-0.2,0.8,2.2c0.2,3-0.8,2.8-2.8,5.8l-12-1c-3-0.8-2.2,0-3-3c-0.6-0.8-1.7,1.7-0.6-2.8C261.8,167.3,261,168.4,263,167
		L263,167z M240,175c-3,1.9-8.4,1-12,1c-2.1-3.1-4.3-4.3-2-8c0.6-3.3-1.3-1.4,2-2c1.5-2.7,1.6-2.1,6-2.2c4.9-0.1,5.2-0.4,7,2.2l1,1
		c2,1.1,1.4,0.5,1.6,2.2c0.8,4.9,0.2,1.5-0.6,2.8C242.2,175,243,174.2,240,175L240,175z M204,175c-0.2,0.1-0.6,0-0.7,0.3l-2.4,0.7
		c-7,1-8.4,0.3-9.9-2c-3-1.7-2-2.4-2-7c1.4-0.8,1.1-0.6,3-1c1.5-2.7,1.6-2.1,6-2.2c4.9-0.1,5.2-0.4,7,2.2l1,1l1,2
		c0.3,0.4,2-0.7,0.4,3.4C206.4,174.9,206.4,174.3,204,175z M67,175v118c0,15,6.7,27,21,27H422c10.3,0,20-9.3,20-22V170
		c0-6.9-4.8-14.1-9.1-16.9c-5.2-3.4-14.5-2.1-23.9-2.1H146c-17.3,0-34.8,0.3-52.1,0c-10.7-0.1-12.4-3.2-19.8,4.2
		C69.1,160.3,67,165.2,67,175L67,175z M322,376c0-1.4,8.4-18,23-18c18.6,0,25.4,21.7,12.2,32.2c-3.8,3-9.5,5.1-14.4,4.1
		C331.4,391.9,322,380.4,322,376z M288,394c-21.4,0-26.4-18.5-15.4-30.4c1.7-1.8-0.1-0.3,2-2c3.4-2.8,6.8-3.6,11.4-3.6
		c12.4,0,19,10.5,24,18c-3.8,4.4-3.7,6.2-8.7,11.3C297.6,391,295.1,394,288,394z M257,374c0,17.8,9.1,27.6,25.7,30.4
		c16.6,2.7,25.6-8.3,32.3-18.4c3.6,2.6,10.5,19,32,19c12.4,0,27-13.9,27-26c0-9.8,0.7-14.2-8.7-23.3c-10.1-9.7-28.4-10.9-39.5-1
		c-2,1.8-3.6,3.5-5.5,5.5c-2.2,2.2-3.2,4.3-5.2,5.8c-1.5-5.7-15.2-18-26-18h-7C270,348,257,362.3,257,374L257,374z M260,114V99
		c3,2,7,5.1,8,9C264,109,263.4,111.7,260,114z M260,79V64c3.4,2.3,4,4.9,8,6C267,73.9,263,76.9,260,79z M252,79l-15.8-15.2
		c-11.8,8.4,5.4,12.6,13.8,25.2c-5.1,7.7-16.4,14-18,20l4.2,4.8l15.6-15.1L252,130c8,0,12.3-8,21.8-17.2c2.8-2.7,4.9-3.5,5.2-7.8
		c-3.6-0.9-14.8-12.8-17-16l17.2-17.8C277.6,68.8,257.9,48,255,48h-3L252,79L252,79z M153,224c11.5,0,16.2-0.5,25.8,9.2
		c14.6,14.8,8.8,40.6-9.2,48.4c-24.7,10.7-50.1-11-41.8-37.8C130.6,234.6,141.3,224,153,224L153,224z M122,247c-11.2,0-25-2.9-25,7
		c0,10.8,15,8,26,8c1.8,22.3,41.4,42.5,63.5,10.4c2.9-4.2,2.6-6.3,4.6-10.4c19.4,0,24,1.8,24-10c0-2.4-1.6-2.9-3-5h-21
		c-1.6-6.9-5.1-14.1-10.4-18.6c-18.4-15.5-42.1-11.4-53.8,7.4C124.1,240,123.9,242.9,122,247L122,247z M346,249
		c0-2.8,1.3-9.7,2.1-11.9C358,208.5,407,211.7,407,249c0,13-7.1,21.7-18,27C368.5,286.2,346,268.5,346,249L346,249z M368,214
		c-7.9,3.8-11.4,4.1-17.2,10.8c-20,22.8-2.9,55.6,17.2,57.3c0,16.3-3,25,9,25c7.9,0,6-15.6,6-24c28.1-6.5,37.4-38,20.3-57.3
		c-4.4-4.9-12.1-11.1-20.3-11.8c0-13.9,3-25-8-25C365.4,189,368,200.4,368,214z M378,260l0.3,0.3C378.3,260.3,377.9,260.1,378,260z
		 M374,260l0.3,0.3C374.3,260.3,373.9,260.1,374,260z M384,258l0.3,0.3C384.3,258.3,383.9,258.1,384,258z M380,258l0.3,0.3
		C380.3,258.3,379.9,258.1,380,258z M376,258l0.3,0.3C376.3,258.3,375.9,258.1,376,258z M372,258l0.3,0.3
		C372.3,258.3,371.9,258.1,372,258z M368,258l0.3,0.3C368.3,258.3,367.9,258.1,368,258z M386,256l0.3,0.3
		C386.3,256.3,385.9,256.1,386,256z M382,256l0.3,0.3C382.3,256.3,381.9,256.1,382,256z M378,256l0.3,0.3
		C378.3,256.3,377.9,256.1,378,256z M374,256l0.3,0.3C374.3,256.3,373.9,256.1,374,256z M370,256l0.3,0.3
		C370.3,256.3,369.9,256.1,370,256z M366,256l0.3,0.3C366.3,256.3,365.9,256.1,366,256z M384,254l0.3,0.3
		C384.3,254.3,383.9,254.1,384,254z M380,254l0.3,0.3C380.3,254.3,379.9,254.1,380,254z M376,254l0.3,0.3
		C376.3,254.3,375.9,254.1,376,254z M372,254l0.3,0.3C372.3,254.3,371.9,254.1,372,254z M368,254l0.3,0.3
		C368.3,254.3,367.9,254.1,368,254z M382,252l0.3,0.3C382.3,252.3,381.9,252.1,382,252z M378,252l0.3,0.3
		C378.3,252.3,377.9,252.1,378,252z M374,252l0.3,0.3C374.3,252.3,373.9,252.1,374,252z M370,252l0.3,0.3
		C370.3,252.3,369.9,252.1,370,252z M366,252l0.3,0.3C366.3,252.3,365.9,252.1,366,252z M384,250l0.3,0.3
		C384.3,250.3,383.9,250.1,384,250z M380,250l0.3,0.3C380.3,250.3,379.9,250.1,380,250z M376,250l0.3,0.3
		C376.3,250.3,375.9,250.1,376,250z M372,250l0.3,0.3C372.3,250.3,371.9,250.1,372,250z M368,250l0.3,0.3
		C368.3,250.3,367.9,250.1,368,250z M364,250l0.3,0.3C364.3,250.3,363.9,250.1,364,250z M382,248l0.3,0.3
		C382.3,248.3,381.9,248.1,382,248z M378,248l0.3,0.3C378.3,248.3,377.9,248.1,378,248z M374,248l0.3,0.3
		C374.3,248.3,373.9,248.1,374,248z M370,248l0.3,0.3C370.3,248.3,369.9,248.1,370,248z M366,248l0.3,0.3
		C366.3,248.3,365.9,248.1,366,248z M388,246l0.3,0.3C388.3,246.3,387.9,246.1,388,246z M384,246l0.3,0.3
		C384.3,246.3,383.9,246.1,384,246z M380,246l0.3,0.3C380.3,246.3,379.9,246.1,380,246z M376,246l0.3,0.3
		C376.3,246.3,375.9,246.1,376,246z M372,246l0.3,0.3C372.3,246.3,371.9,246.1,372,246z M368,246l0.3,0.3
		C368.3,246.3,367.9,246.1,368,246z M364,246l0.3,0.3C364.3,246.3,363.9,246.1,364,246z M382,244l0.3,0.3
		C382.3,244.3,381.9,244.1,382,244z M378,244l0.3,0.3C378.3,244.3,377.9,244.1,378,244z M374,244l0.3,0.3
		C374.3,244.3,373.9,244.1,374,244z M370,244l0.3,0.3C370.3,244.3,369.9,244.1,370,244z M366,244l0.3,0.3
		C366.3,244.3,365.9,244.1,366,244z M384,242l0.3,0.3C384.3,242.3,383.9,242.1,384,242z M380,242l0.3,0.3
		C380.3,242.3,379.9,242.1,380,242z M376,242l0.3,0.3C376.3,242.3,375.9,242.1,376,242z M372,242l0.3,0.3
		C372.3,242.3,371.9,242.1,372,242z M368,242l0.3,0.3C368.3,242.3,367.9,242.1,368,242z M382,240l0.3,0.3
		C382.3,240.3,381.9,240.1,382,240z M378,240l0.3,0.3C378.3,240.3,377.9,240.1,378,240z M374,240l0.3,0.3
		C374.3,240.3,373.9,240.1,374,240z M370,240l0.3,0.3C370.3,240.3,369.9,240.1,370,240z M366,240l0.3,0.3
		C366.3,240.3,365.9,240.1,366,240z M384,238l0.3,0.3C384.3,238.3,383.9,238.1,384,238z M368,238l0.3,0.3
		C368.3,238.3,367.9,238.1,368,238z M378,236l0.3,0.3C378.3,236.3,377.9,236.1,378,236z M374,236l0.3,0.3
		C374.3,236.3,373.9,236.1,374,236z M357,247c0,29.6,39.9,26.1,39.8,1c0-10.9-11-20-19.8-20C367,228,357,236.6,357,247L357,247z
		 M158,266l0.3,0.3C158.3,266.3,157.9,266.1,158,266z M154,266l0.3,0.3C154.3,266.3,153.9,266.1,154,266z M160,264l0.3,0.3
		C160.3,264.3,159.9,264.1,160,264z M152,264l0.3,0.3C152.3,264.3,151.9,264.1,152,264z M148,264l0.3,0.3
		C148.3,264.3,147.9,264.1,148,264z M158,262l0.3,0.3C158.3,262.3,157.9,262.1,158,262z M154,262l0.3,0.3
		C154.3,262.3,153.9,262.1,154,262z M150,262l0.3,0.3C150.3,262.3,149.9,262.1,150,262z M148,255l0.3,0.3
		C148.3,255.3,147.9,255.1,148,255z M144,255l0.3,0.3C144.3,255.3,143.9,255.1,144,255z M164,251l0.3,0.3
		C164.3,251.3,163.9,251.1,164,251z M160,251l0.3,0.3C160.3,251.3,159.9,251.1,160,251z M156,251l0.3,0.3
		C156.3,251.3,155.9,251.1,156,251z M152,251l0.3,0.3C152.3,251.3,151.9,251.1,152,251z M148,251l0.3,0.3
		C148.3,251.3,147.9,251.1,148,251z M144,251l0.3,0.3C144.3,251.3,143.9,251.1,144,251z M158,249l0.3,0.3
		C158.3,249.3,157.9,249.1,158,249z M154,249l0.3,0.3C154.3,249.3,153.9,249.1,154,249z M150,249l0.3,0.3
		C150.3,249.3,149.9,249.1,150,249z M164,247l0.3,0.3C164.3,247.3,163.9,247.1,164,247z M160,247l0.3,0.3
		C160.3,247.3,159.9,247.1,160,247z M152,247l0.3,0.3C152.3,247.3,151.9,247.1,152,247z M148,247l0.3,0.3
		C148.3,247.3,147.9,247.1,148,247z M162,245l0.3,0.3C162.3,245.3,161.9,245.1,162,245z M158,245l0.3,0.3
		C158.3,245.3,157.9,245.1,158,245z M154,245l0.3,0.3C154.3,245.3,153.9,245.1,154,245z M150,245l0.3,0.3
		C150.3,245.3,149.9,245.1,150,245z M146,245l0.3,0.3C146.3,245.3,145.9,245.1,146,245z M164,243l0.3,0.3
		C164.3,243.3,163.9,243.1,164,243z M160,243l0.3,0.3C160.3,243.3,159.9,243.1,160,243z M152,243l0.3,0.3
		C152.3,243.3,151.9,243.1,152,243z M148,243l0.3,0.3C148.3,243.3,147.9,243.1,148,243z M158,241l0.3,0.3
		C158.3,241.3,157.9,241.1,158,241z M154,241l0.3,0.3C154.3,241.3,153.9,241.1,154,241z M137,251c0,7.4,0.2,12.2,6.3,17.8
		c12.5,11.5,32.4,2.5,33.5-13.9c1-14.2-17.7-29-33.5-15.6C140.7,241.4,137,246.8,137,251z M185,360c0.1,0.2,0.3,0.3,0.4,0.6
		c0.1,0.4,0.3,0.5,0.4,0.6l2.3,4.7h-5C183.9,364,184.4,362.5,185,360L185,360z M136,378h7c0.4-4.7,2-8.7,2-14l5.1,14l6.9,0
		c0.8-3.3,2.7-10.3,5-13c0.4,4.2,1.9,8.5,2,13c16.1,0,14.3,1.3,16-6h11c0.3,3.4,0.8,3.7,2,6h7c-0.3-4-9-24.3-11-28h-8l-10,25
		c-0.6-7.7-3.8-17.3-4-25h-8l-5.7,14.7c0,0-0.9-2.1-0.9-2.1L148,350h-8C140,359.2,136,368.9,136,378L136,378z M200,396
		c0-13.5,17-10,17-2C217,406.3,200,403.7,200,396z M193,393c0,9,4.2,16,15,16c21.9,0,20.2-28,2-28C201.4,381,193,384.1,193,393z
		 M208,372v-16h4c2.4,0,6,3.6,6,6v4C218,370.3,212.8,372,208,372z M201,378c6.7,0,14.8,0.9,19.3-2.7c8.4-6.7,6.5-25.3-8.3-25.3h-11
		V378z M234,392v-5c2.8,0.2,3.4-0.3,3.8,2.1C238.2,391.9,236,391.3,234,392z M226,406c0,3.4,1.8,3,5,3c4.2,0,3-3.9,3-8l2.4,3.6
		c1.2,2.2,1.4,2.5,2.6,4.4h7c-0.3-3.7-4.2-9.3-6-12c9.1-4.8,5-16-3-16h-11V406z M228,378h17v-6h-10v-6h10v-6h-10v-4h10v-6h-17V378z
		 M175,409h7v-12h9v-6h-9v-4h9v-6h-16V409z M342,426c0,3,1.2,2.8,4,3v-13l3.1,6.9c3.7,9.7,7.9,6.2,7.9,3.1v-17h-4v12
		c-1.2-1.4-0.4,0-1.6-2.4L348,409h-6V426z M302,69c0,0,13.3,19,4.2,33.2c-3.4,5.3-4.7,3.6-1.2,8.8c8-5.8,11.8-22,6.5-34.5
		c-1.8-4.2-3.5-5.8-5.5-9.5C303.6,68.6,305,68.1,302,69z M197,88c0,6.1,0.3,8.3,2.5,13.5c1.8,4.2,3.5,5.8,5.5,9.5c2.4-1.6,1-1.2,4-2
		c0,0-13.3-19-4.2-33.2c3.4-5.3,4.7-3.6,1.2-8.8C201.7,70.1,197,80.1,197,88z M366,425c-3.9,0-3-2.6-3-9c0-2.7,1.4-3,3-4
		C372,416.1,369.8,425,366,425z M358,419c0,12.8,16,15,16-2C374,405.2,358,404.3,358,419z M309,421c0,10.3,15,12.1,15-2v-10h-5v16
		h-5v-16h-5V421z M281,417v-5C286.5,413.3,287.4,416.4,281,417z M277,429h4v-8c7.7,2-1,8,10,8c-0.8-3.4-2.5-6.2-4-9
		c1.2-1.9,2.9-3.2,2.8-5.9c-0.4-6.4-7.3-5.1-12.8-5.1V429z M297,425v-13c2.3,0.5,2.3,0.8,5,1C303.3,418.4,305.1,424.4,297,425z
		 M293,429h3c6.4,0,10.5-2.5,11.3-8.6c0.6-4.6-0.1-11.4-7.3-11.4h-7V429z M267,414c0.3,3.9,0.9,2.6,1,7h-3L267,414z M263,425h7
		c0.4,4.3,0.6,3.9,5,4c-0.5-6.5-4.4-13-5-20h-6c-0.9,1.9-6.3,18-4.9,19.3C261.9,431.1,262.8,427.8,263,425z M341,372h-5v6h5v6h6v-6
		h6c0-4.1,0.5-8.1-6-5v-6h-6V372z M326,409v3h5v13h-5c0.4,5,0,4,13,4v-4h-4v-13h4v-3C335.8,407.2,329.5,407.7,326,409z M209,88
		c0,5.8,0.9,11,5,14c6.3-4.2,0-2.5,0-14c0-6,1.9-6,3-10l-2.9-2.2C210.9,78.2,209,82.8,209,88z M297,87c0,11-1.4,7.2-3,13l2.9,2.2
		c7-5.2,6.8-21.3,0.1-26.2C290.8,80.1,297,80.6,297,87z M264,169c4.5-2.5,5.4-0.3,6,0c-0.9,3.5-0.4,2.2-3,4
		C263,170.3,265.6,172,264,169z M263,167c-0.5,2.3-0.8,2.3-1,5l3,3h11l2.8-3.2l0.2-3.8l-2-2h-13L263,167z M231,173c-1.6,0-3-0.6-3-2
		v-2C235.6,165.3,234.1,173,231,173z M226,168v4l3.2,2.8L240,175l3-3c-0.2-2.7-0.5-2.7-1-5l-1-1h-13L226,168z M192,171v-2
		c2.6-1.3,1.1-0.9,5-1C196.8,176.7,192,172.1,192,171z M191,174c4.9,1.1,7,1,13,1c1.4-2.2,2.3-2.9,3-6l-1-2l-1-1h-13
		C189.1,170.2,189.7,168.6,191,174z M304,172C304.9,160.9,316.4,174.9,304,172z M303,167c-0.5,2.3-0.8,2.3-1,5l3.2,2.8L316,175
		l3.2-3.9c-0.8-2.8-1.1-3.1-2.2-5.1h-13L303,167L303,167z M276,378h20v-5h-20V378z M371,227h12c-0.7-2.6-3.8-7.6-8-8
		C373.5,224.7,371.5,220.7,371,227z M178,260c3.1-0.8,6.3-3.4,8-6c-1.8-2.8-4.4-5-8-6V260z M378,278c1.3-5,3.3-3.4,5-8h-13
		C373.1,274.6,374.4,277,378,278z M127,254c1.3,1.7,1.9,1.8,3.7,3.3c2.6,2.1,0.8,1.7,4.3,2.7v-12c-3.2,0.9-1.8,0.5-4.5,2.5
		C127.8,252.5,128.7,251.4,127,254L127,254z M372,353v-3h-5C368.8,353.3,367.2,352.9,372,353z"/>
</g>
</svg>
